<?xml version="1.0"?>
<svg xmlns="http://www.w3.org/2000/svg" width="640" height="480">
  <defs>
    <linearGradient id="a" x1=".171875" x2=".585938" y1=".195313" y2=".582031">
      <stop offset="0" stop-color="#070707"/>
      <stop offset="1" stop-color="#f9f9f9"/>
    </linearGradient>
    <linearGradient id="c" x1=".324219" x2=".761719" y1=".414063" y2=".730469">
      <stop offset="0" stop-color="#070707"/>
      <stop offset="1" stop-color="#fcfcf9"/>
    </linearGradient>
    <linearGradient id="b" x1=".511719" x2=".84375" y1=".5" y2=".871094">
      <stop offset="0" stop-color="#050505"/>
      <stop offset="1" stop-color="#fcfcfc"/>
    </linearGradient>
    <linearGradient id="d" x1=".4375" x2=".78125" y1=".355469" y2=".773438">
      <stop offset="0" stop-color="#0a0909"/>
      <stop offset="1" stop-color="#efefea"/>
    </linearGradient>
  </defs>
  <path fill="url(#a)" d="M469.955902 21.606251c-68.553711 3.223257-102.830261 75.321033-119.151459 132.988384-17.457214 11.305222-44.18045 23.830139-50.581726 42.433304 2.501099 10.938049-20.416473 17.072739-41.972046 27.520126-67.924942 4.049835-146.1642 37.251678-170.501869 105.622009-15.334435 59.594788 41.030952 119.38858 101.449409 108.969635 56.288788-6.404144 116.145416-32.294647 148.384277-80.373291 39.025482-12.273071 68.584808-44.464386 96.089874-70.722168 74.085205.020172 112.404907-80.476929 123.617798-143.497818 14.659973-53.6894-18.878174-119.216286-78.395477-121.980179-2.92041.718094-6.044159-1.995474-8.938782-.960003zm8.148407 66.724812c32.840759 22.194847 9.433105 69.940636-3.593048 98.804466-12.55838 31.891449-6.962341-28.225677-28.905304-33.056244-28.883545-6.066559-15.011597-26.672989-4.037292-44.376953 7.996094-11.92009 20.361359-26.355278 36.535645-21.371269zm-150.97641 97.934807c-9.323334 15.402023-5.862152-9.843887 0 0zm29.211334 44.739441c15.61377 22.361481 13.536255 38.07663-11.377045 52.887878-16.275238-20.349396-18.078583-40.609482 8.917145-53.502853 1.046326-.52829 3.220459-4.046402 2.4599.614975zm-113.770416 84.251617c5.179077 24.713287 21.884613 41.390015-14.182709 47.162018-23.142365 11.963043-73.4422 24.984772-77.141113-12.877167 13.299164-36.138885 57.556259-50.753143 92.400024-57.961395-.358765 7.89212-.717453 15.784393-1.076202 23.676544z"/>
  <path fill="url(#b)" d="M255.494751 234.034134c-34.867035.141602-68.361481 13.211548-98.628601 29.580612-26.97226 15.159241-52.706169 37.738525-61.015961 68.643921-7.098633 27.292053 3.476379 57.387665 23.356071 76.699829 20.869148 19.505219 51.620872 23.339691 78.881386 19.217102 31.722061-5.021362 62.007996-17.747101 89.112427-34.776093 24.348938-15.747559 46.350433-38.97818 51.339203-68.530365 3.839172-25.135925-1.656189-45.730957-19.705811-63.404907-11.986053 13.266876-21.322235 23.562317-22.879333 36.562744-.813995 7.076202 1.526886 12.739838-1.002228 20.587952-3.596619 18.417206-21.431763 29.87381-36.459473 39.29541-22.511429 12.895172-47.13298 23.63797-73.206207 26.127075-14.883774 1.363861-32.675247-1.998627-40.759079-16.002075-7.541611-11.56192-5.982071-27.18512 2.337006-37.907715 15.276291-20.534424 39.391968-31.735596 62.567535-40.965454 14.109009-5.278595 24.966721-9.404694 40.135056-9.540527 3.552429-15.760071 9.88147-30.573303 18.830048-43.950287-5.848419-1.00325-6.965851-1.597809-12.902039-1.637222z" opacity=".97"/>
  <path fill="url(#c)" d="M403.368622 150.442184c-24.063965.83223-47.538788 9.049133-67.264099 22.780701-9.766876 6.77446-19.053925 14.269684-27.752167 22.401382l1.59729 13.237167 17.569702-16.771027-5.590393 24.757278 18.368378-11.180725-5.590393 21.562851 12.199005-5.590378c3.755798-3.413895 7.565033-6.769852 11.460236-10.002747 9.00116-7.156479 19.108856-14.06369 30.088135-18.388306 7.226074-2.70166 16.491394-2.323654 21.622742 4.152847 8.054352 6.289627 2.361542 12.001785 4.232727 18.713715 7.749329 11.539001 23.354523 14.258377 36.660309 8.850037 5.057434-15.704407 6.662048-24.260391 2.691864-40.541382-5.76059-18.989609-24.291687-33.914413-44.403503-33.981415-1.962219-.080582-3.92749-.071045-5.889832 0zM289.96405 214.891098c-6.518677 7.593216-12.610901 15.548431-18.108795 23.898773-3.445099 6.658798-9.006927 14.906052-12.11911 22.780807-7.06398 16.862-10.129654 35.510803-8.924591 53.747314 1.173309 14.196686 4.302307 24.81076 17.165131 31.558563 10.848511-8.844025 23.92746-18.108337 22.905823-32.89624-5.726746-7.19043-1.818817-16.68634 2.375854-24.038574 7.860229-15.663666 17.841187-30.060333 29.209717-43.305389l-7.726715 2.954941 1.597198-18.368378-19.166931 10.382156 7.187622-22.361481-18.368378 22.361481 6.389008-23.16011s-1.732361-2.51413-2.415833-3.553864zm88.917999 46.406998c-14.064941 15.849548-18.40097 24.52713-35.575928 36.96405 4.297607 16.96759.934235 34.718811-7.20578 50.115387 35.509521-11.654968 56.75946-31.142517 80.959412-58.821045 4.739807-4.391418 6.766693-7.852234-.918427-8.225861-12.866852-3.813721-28.01535-10.187378-37.259277-20.032532z"/>
  <path fill="url(#d)" d="M469.463776 30.970257c-28.968414-.611774-54.500458 18.040714-71.178467 40.394039-18.656036 25.205864-33.41745 54.902168-40.564453 85.300194 11.584686-7.769287 41.175812-12.62233 53.485077-11.057205 8.287354-22.582314 18.087341-46.075851 37.611328-61.192383 11.530396-9.528671 29.157898-9.95369 40.899261-.6259 14.209473 11.065422 14.995056 31.239113 12.752869 47.637115-3.895142 24.363159-12.844971 47.900909-25.252808 69.184021-9.024963 14.531616-22.00473 30.112045-40.2836 31.61499-15.21463 1.065674-29.460571-8.076202-32.783417-22.965881-3.208862-4.339462-.126862-13.768845-4.464417-13.963516-6.334412-1.865753-22.284851 6.279526-37.049561 18.113068 2.213898 24.806427 10.335266 41.266418 32.481903 53.384537 22.060791 12.718872 50.534576 15.705627 73.567566 3.624329 27.164581-13.464478 45.365906-39.683762 57.984009-66.414917 14.77771-32.725952 26.220825-69.147873 20.580383-105.396484-3.334534-23.02063-16.560974-44.997879-37.363129-56.160809-12.324066-6.855946-26.259644-11.240175-40.422546-11.475197z"/>
</svg>